<svg width="129" height="120" viewBox="0 0 129 120" fill="none" xmlns="http://www.w3.org/2000/svg">
<path d="M49.6297 65.8196C48.8829 65.8221 48.1036 65.9218 47.2812 66.1405C51.7643 71.4089 59.0919 72.9374 64.1185 77.5871C71.7252 84.6235 71.1161 98.081 68.2208 107.214C73.7624 104.009 73.0531 98.4047 73.0531 92.7177C73.0531 80.3029 69.2038 75.4778 58.5564 69.362C55.507 67.6104 52.8658 65.8081 49.6297 65.8196Z" fill="#1C2026"/>
<path d="M56.085 61.9502C55.5777 61.9587 55.0595 62.0114 54.5293 62.1138V63.7245C60.2447 67.2226 67.5556 69.9846 72.076 75.0343C78.1127 81.778 77.5926 95.1509 74.6635 103.188C80.5171 100.3 79.4957 94.356 79.4957 88.691C79.4957 76.5347 76.2471 71.9961 65.8045 65.8213C62.6676 63.9665 59.6357 61.891 56.085 61.9502Z" fill="#1C2026"/>
<path d="M63.7191 57.9202C62.8206 57.906 61.9045 57.9605 60.9727 58.0869V59.6976C66.6306 63.4296 73.8743 66.0131 78.5193 71.0467C84.7317 77.7788 84.0657 91.8477 81.1069 99.9661C86.8568 96.8127 86.7461 91.3844 86.7445 85.4694C86.7404 73.5379 77.1969 58.1326 63.7191 57.9202Z" fill="#1C2026"/>
<path d="M22.3144 29.8989C22.3144 42.5686 19.0359 60.5868 23.2078 72.5835C26.803 82.9215 42.4499 88.346 51.3077 93.402C55.1907 95.6184 58.9574 98.3063 63.3882 99.1607C61.9686 94.3347 57.0272 92.5258 52.9184 90.1805C45.0469 85.6875 32.9111 81.2978 27.9472 73.3857C22.9736 65.458 25.5359 51.7935 25.5359 42.7848C25.5359 38.1185 26.7755 32.6355 22.3144 29.8989Z" fill="#1C2026"/>
<path d="M15.8716 26.6775V61.3084C15.8716 66.6177 14.7839 73.3326 17.2323 78.2211C20.0657 83.8785 25.9941 86.4621 31.1736 89.5041C41.3771 95.4968 51.715 102.531 62.583 107.214C63.5017 101.046 50.3359 96.3077 45.6703 93.6442C36.8626 88.6163 21.0101 83.1939 19.2646 71.7782C17.6531 61.2393 19.0931 49.4215 19.0931 38.758C19.0931 34.3495 20.242 29.0874 15.8716 26.6775Z" fill="#1C2026"/>
<path d="M116.544 25.8721C115.9 29.4673 117.349 34.1053 117.349 37.9526V71.7781C117.349 76.2629 115.64 83.4871 120.571 85.4694V44.3956C120.571 37.5379 121.833 30.9929 116.544 25.8721Z" fill="#1C2026"/>
<path d="M11.04 25.8721C2.29895 30.5453 5.40241 44.7833 5.40241 53.2546C5.40241 62.4615 2.81626 76.3689 7.34978 84.6624C12.2989 93.7163 27.3561 98.9064 36.0064 103.872C43.0583 107.92 51.8091 116.063 60.1675 112.047V111.241C52.4762 110.825 44.971 104.63 38.4226 100.893C29.8647 96.0077 17.3181 91.33 11.5654 83.0517C8.25234 78.2842 8.62389 72.4655 8.62389 66.9459C8.62389 54.3579 5.64589 37.4309 11.04 25.8721Z" fill="#1C2026"/>
<path d="M16.3483 24.0223C14.8958 24.0151 13.4001 24.3228 11.8448 25.0668C14.3347 36.8937 11.8448 52.2747 11.8448 64.5299C11.8448 70.835 11.2833 77.7259 15.3353 83.0534C22.2603 92.1586 39.0791 97.9999 48.8918 103.724C51.4993 105.245 60.9723 108.724 60.9723 111.241C70.0608 106.873 68.1262 87.645 62.7529 80.7112C60.2433 77.4727 56.3955 75.7204 52.9186 73.7271C48.9988 71.4799 45.3319 68.2321 40.8381 70.1675V70.9728C49.1759 76.9271 61.5174 80.0808 62.5831 91.9124C52.8876 85.9785 36.343 80.519 30.7049 70.1675C25.6302 60.8504 28.7576 44.3092 28.7576 33.9259C38.7411 38.2278 48.4671 48.2002 59.3616 49.8618C73.2239 51.9761 85.4221 39.4378 97.2139 33.9259V62.9192C97.2139 67.1834 96.2347 71.878 100.435 74.1943V43.5903C100.435 38.4146 99.528 33.6189 103.657 29.899V65.3353C103.657 70.0016 102.417 75.4846 106.878 78.2212C110.18 67.0523 107.684 52.0185 107.684 40.3688C107.684 35.6919 106.234 29.2533 110.905 26.6775V67.7514C110.905 72.0799 109.152 79.7917 114.127 81.4426V41.1742L114.932 25.0668C97.2107 18.6198 80.9816 46.6393 63.3884 46.6608C52.1591 46.6745 38.2041 34.6038 28.7576 29.2148C24.6797 26.8885 20.7055 24.0435 16.3483 24.0223ZM15.8716 26.6775C20.242 29.0875 19.0931 34.3496 19.0931 38.7581C19.0931 49.4216 17.6531 61.2393 19.2646 71.7782C21.0101 83.1939 36.8626 88.6163 45.6703 93.6443C50.336 96.3077 63.5017 101.046 62.5831 107.214C51.715 102.531 41.3771 95.4969 31.1737 89.5042C25.9941 86.4622 20.0657 83.8786 17.2323 78.2212C14.7839 73.3327 15.8716 66.6177 15.8716 61.3084V26.6775ZM22.3146 29.899C26.7758 32.6356 25.5361 38.1186 25.5361 42.7849C25.5361 51.7936 22.9738 65.4581 27.9475 73.3858C32.9113 81.2979 45.0471 85.6875 52.9186 90.1806C57.0274 92.5259 61.9688 94.3348 63.3884 99.1608C58.9576 98.3064 55.1909 95.6185 51.3079 93.4021C42.4501 88.3461 26.8032 82.9216 23.2081 72.5836C19.0361 60.5869 22.3146 42.5687 22.3146 29.899ZM63.7188 57.9202C77.1966 58.1327 86.7403 73.5379 86.7441 85.4695C86.7457 91.3844 86.8565 96.8127 81.1065 99.9661C84.0654 91.8477 84.7314 77.7788 78.519 71.0468C73.8739 66.0132 66.6303 63.4297 60.9723 59.6977V58.0869C61.9042 57.9605 62.8202 57.906 63.7188 57.9202ZM56.085 61.9502C59.6358 61.891 62.6677 63.9665 65.8045 65.8213C76.2472 71.9961 79.4958 76.5346 79.4958 88.691C79.4958 94.356 80.5172 100.3 74.6636 103.188C77.5926 95.1509 78.1127 81.778 72.076 75.0343C67.5557 69.9846 60.2448 67.2226 54.5294 63.7245V62.1138C55.0596 62.0114 55.5778 61.9587 56.085 61.9502ZM49.6295 65.8197C52.8656 65.8082 55.5068 67.6105 58.5562 69.3621C69.2036 75.478 73.0529 80.303 73.0529 92.7178C73.0529 98.4048 73.7622 104.009 68.2206 107.214C71.1159 98.0811 71.725 84.6236 64.1183 77.5873C59.0916 72.9375 51.7641 71.409 47.281 66.1406C48.1034 65.9219 48.8827 65.8224 49.6295 65.8197Z" fill="#1C2026"/>
<path d="M23.0788 20.0947C21.4107 20.1158 19.7915 20.6215 18.2891 21.8454C34.3121 23.4866 46.253 42.5372 62.5844 42.7693C79.4472 43.0089 91.3224 23.5214 107.685 21.8454V21.0401C93.5144 16.0271 78.4906 36.3819 65.0005 39.1247C56.3292 40.8877 44.7331 30.7668 37.6179 26.6776C33.5316 24.3291 28.0832 20.0314 23.0788 20.0947Z" fill="#1C2026"/>
<path d="M31.0489 16.1338C29.1509 16.1117 27.3057 16.6101 25.5371 17.8184C38.7227 20.1703 49.8567 36.2709 63.3895 36.0525C76.9061 35.8343 87.8098 19.9133 101.242 17.8184V17.0131C86.0913 13.4077 76.7525 32.8331 62.5841 32.0587C53.0793 31.5392 41.2977 16.253 31.0489 16.1338Z" fill="#1C2026"/>
<path d="M36.8048 12.2093C35.1795 12.2346 33.5689 12.7069 31.9805 13.7918C42.5482 16.3031 51.7892 28.1317 62.5845 28.6801C73.356 29.2272 83.6373 16.2746 93.9939 13.7918V12.9864C81.7178 10.0718 74.7688 24.1768 63.3899 24.6202C54.7968 24.955 45.5813 12.0728 36.8048 12.2093Z" fill="#1C2026"/>
<path d="M46.3717 89.4653L47.3459 90.0178C47.4445 90.0737 47.4658 90.151 47.4099 90.2496L43.4055 94.5469C43.3496 94.6455 43.2724 94.6668 43.1738 94.6109L42.6345 94.305C42.5359 94.2491 42.5146 94.1719 42.5705 94.0733L46.0618 90.6806L46.027 90.6609L42.0906 92.2032C42.0032 92.2762 41.9131 92.2864 41.8203 92.2338L41.2636 91.9181C41.1766 91.8687 41.1421 91.7878 41.1599 91.6753L42.8135 88.8268L42.7788 88.8071L39.2825 92.2085C39.2496 92.2665 39.215 92.3005 39.1786 92.3105C39.1514 92.3181 39.1087 92.3054 39.0507 92.2725L38.5201 91.9716C38.4216 91.9157 38.4002 91.8384 38.4561 91.7398L42.4605 87.4425C42.5165 87.3439 42.5937 87.3226 42.6923 87.3785L43.6665 87.931C43.7303 87.9672 43.7586 88.0254 43.7514 88.1056L42.0388 91.1391L42.0823 91.1638L46.187 89.487C46.2347 89.4298 46.2963 89.4225 46.3717 89.4653Z" fill="white"/>
<path d="M46.3717 89.4653L47.3459 90.0178C47.4445 90.0737 47.4658 90.151 47.4099 90.2496L43.4055 94.5469C43.3496 94.6455 43.2724 94.6668 43.1738 94.6109L42.6345 94.305C42.5359 94.2491 42.5146 94.1719 42.5705 94.0733L46.0618 90.6806L46.027 90.6609L42.0906 92.2032C42.0032 92.2762 41.9131 92.2864 41.8203 92.2338L41.2636 91.9181C41.1766 91.8687 41.1421 91.7878 41.1599 91.6753L42.8135 88.8268L42.7788 88.8071L39.2825 92.2085C39.2496 92.2665 39.215 92.3005 39.1786 92.3105C39.1514 92.3181 39.1087 92.3054 39.0507 92.2725L38.5201 91.9716C38.4216 91.9157 38.4002 91.8384 38.4561 91.7398L42.4605 87.4425C42.5165 87.3439 42.5937 87.3226 42.6923 87.3785L43.6665 87.931C43.7303 87.9672 43.7586 88.0254 43.7514 88.1056L42.0388 91.1391L42.0823 91.1638L46.187 89.487C46.2347 89.4298 46.2963 89.4225 46.3717 89.4653Z" fill="url(#paint0_linear_41_543)" fill-opacity="0.7"/>
<path d="M46.3717 89.4653L47.3459 90.0178C47.4445 90.0737 47.4658 90.151 47.4099 90.2496L43.4055 94.5469C43.3496 94.6455 43.2724 94.6668 43.1738 94.6109L42.6345 94.305C42.5359 94.2491 42.5146 94.1719 42.5705 94.0733L46.0618 90.6806L46.027 90.6609L42.0906 92.2032C42.0032 92.2762 41.9131 92.2864 41.8203 92.2338L41.2636 91.9181C41.1766 91.8687 41.1421 91.7878 41.1599 91.6753L42.8135 88.8268L42.7788 88.8071L39.2825 92.2085C39.2496 92.2665 39.215 92.3005 39.1786 92.3105C39.1514 92.3181 39.1087 92.3054 39.0507 92.2725L38.5201 91.9716C38.4216 91.9157 38.4002 91.8384 38.4561 91.7398L42.4605 87.4425C42.5165 87.3439 42.5937 87.3226 42.6923 87.3785L43.6665 87.931C43.7303 87.9672 43.7586 88.0254 43.7514 88.1056L42.0388 91.1391L42.0823 91.1638L46.187 89.487C46.2347 89.4298 46.2963 89.4225 46.3717 89.4653Z" fill="white"/>
<path d="M46.6866 96.6032L45.6776 96.0309C45.2484 95.7876 44.9824 95.4796 44.8795 95.107C44.7824 94.7377 44.8539 94.3413 45.094 93.918L47.7368 92.0215C47.9802 91.5923 48.2836 91.3276 48.6471 91.2272C49.0197 91.1243 49.4206 91.1945 49.8497 91.4379L50.8587 92.0101C51.282 92.2502 51.5452 92.5566 51.6481 92.9292C51.7543 93.296 51.6857 93.6939 51.4423 94.1231L51.2055 94.5406C51.1463 94.645 51.0645 94.6676 50.9601 94.6084L50.4121 94.2976C50.3135 94.2416 50.2939 94.1615 50.3531 94.0571L50.5701 93.6744C50.8135 93.2453 50.7264 92.9123 50.3089 92.6755L49.5521 92.2463C49.1346 92.0095 48.8042 92.1057 48.5608 92.5348L45.9575 94.3618C45.7141 94.7909 45.8011 95.1238 46.2187 95.3606L46.9754 95.7898C47.393 96.0266 47.7234 95.9305 47.9668 95.5014L48.1839 95.1186C48.2431 95.0143 48.3219 94.99 48.4205 95.0459L48.9685 95.3567C49.0729 95.4159 49.0955 95.4977 49.0363 95.6021L48.7995 96.0196C48.5594 96.4429 48.2531 96.7061 47.8805 96.809C47.5079 96.9119 47.1099 96.8433 46.6866 96.6032Z" fill="white"/>
<path d="M46.6866 96.6032L45.6776 96.0309C45.2484 95.7876 44.9824 95.4796 44.8795 95.107C44.7824 94.7377 44.8539 94.3413 45.094 93.918L47.7368 92.0215C47.9802 91.5923 48.2836 91.3276 48.6471 91.2272C49.0197 91.1243 49.4206 91.1945 49.8497 91.4379L50.8587 92.0101C51.282 92.2502 51.5452 92.5566 51.6481 92.9292C51.7543 93.296 51.6857 93.6939 51.4423 94.1231L51.2055 94.5406C51.1463 94.645 51.0645 94.6676 50.9601 94.6084L50.4121 94.2976C50.3135 94.2416 50.2939 94.1615 50.3531 94.0571L50.5701 93.6744C50.8135 93.2453 50.7264 92.9123 50.3089 92.6755L49.5521 92.2463C49.1346 92.0095 48.8042 92.1057 48.5608 92.5348L45.9575 94.3618C45.7141 94.7909 45.8011 95.1238 46.2187 95.3606L46.9754 95.7898C47.393 96.0266 47.7234 95.9305 47.9668 95.5014L48.1839 95.1186C48.2431 95.0143 48.3219 94.99 48.4205 95.0459L48.9685 95.3567C49.0729 95.4159 49.0955 95.4977 49.0363 95.6021L48.7995 96.0196C48.5594 96.4429 48.2531 96.7061 47.8805 96.809C47.5079 96.9119 47.1099 96.8433 46.6866 96.6032Z" fill="url(#paint1_linear_41_543)" fill-opacity="0.7"/>
<path d="M46.6866 96.6032L45.6776 96.0309C45.2484 95.7876 44.9824 95.4796 44.8795 95.107C44.7824 94.7377 44.8539 94.3413 45.094 93.918L47.7368 92.0215C47.9802 91.5923 48.2836 91.3276 48.6471 91.2272C49.0197 91.1243 49.4206 91.1945 49.8497 91.4379L50.8587 92.0101C51.282 92.2502 51.5452 92.5566 51.6481 92.9292C51.7543 93.296 51.6857 93.6939 51.4423 94.1231L51.2055 94.5406C51.1463 94.645 51.0645 94.6676 50.9601 94.6084L50.4121 94.2976C50.3135 94.2416 50.2939 94.1615 50.3531 94.0571L50.5701 93.6744C50.8135 93.2453 50.7264 92.9123 50.3089 92.6755L49.5521 92.2463C49.1346 92.0095 48.8042 92.1057 48.5608 92.5348L45.9575 94.3618C45.7141 94.7909 45.8011 95.1238 46.2187 95.3606L46.9754 95.7898C47.393 96.0266 47.7234 95.9305 47.9668 95.5014L48.1839 95.1186C48.2431 95.0143 48.3219 94.99 48.4205 95.0459L48.9685 95.3567C49.0729 95.4159 49.0955 95.4977 49.0363 95.6021L48.7995 96.0196C48.5594 96.4429 48.2531 96.7061 47.8805 96.809C47.5079 96.9119 47.1099 96.8433 46.6866 96.6032Z" fill="white"/>
<path d="M50.2953 97.0519L49.6934 98.1131C49.6375 98.2117 49.5632 98.2347 49.4704 98.1821L48.8789 97.8466C48.7803 97.7907 48.759 97.7134 48.8149 97.6149L49.4168 96.5537C49.4694 96.4609 49.545 96.4424 49.6436 96.4984L50.2351 96.8338C50.3279 96.8864 50.3479 96.9591 50.2953 97.0519Z" fill="white"/>
<path d="M50.2953 97.0519L49.6934 98.1131C49.6375 98.2117 49.5632 98.2347 49.4704 98.1821L48.8789 97.8466C48.7803 97.7907 48.759 97.7134 48.8149 97.6149L49.4168 96.5537C49.4694 96.4609 49.545 96.4424 49.6436 96.4984L50.2351 96.8338C50.3279 96.8864 50.3479 96.9591 50.2953 97.0519Z" fill="url(#paint2_linear_41_543)" fill-opacity="0.7"/>
<path d="M50.2953 97.0519L49.6934 98.1131C49.6375 98.2117 49.5632 98.2347 49.4704 98.1821L48.8789 97.8466C48.7803 97.7907 48.759 97.7134 48.8149 97.6149L49.4168 96.5537C49.4694 96.4609 49.545 96.4424 49.6436 96.4984L50.2351 96.8338C50.3279 96.8864 50.3479 96.9591 50.2953 97.0519Z" fill="white"/>
<path d="M50.3999 98.5138L50.8538 97.7136C51.0577 97.354 51.3824 97.1396 51.8279 97.0704L54.2316 96.6632C55.6349 97.6007 55.9188 97.4245 56.0833 97.1346L56.2461 96.8475C56.4829 96.43 56.3838 96.0979 55.9489 95.8513L55.5227 95.6095C55.3023 95.4845 55.1149 95.4434 54.9604 95.4861C54.8059 95.5287 54.6661 95.6602 54.5412 95.8806L54.3586 96.2024C54.2994 96.3068 54.2205 96.3311 54.122 96.2751L53.5653 95.9594C53.4667 95.9035 53.447 95.8234 53.5062 95.719L53.6986 95.3797C53.9387 94.9564 54.2434 94.6962 54.6127 94.5991C54.982 94.502 55.3812 94.5751 55.8103 94.8185L56.4888 95.2033C56.9121 95.4434 57.1769 95.7468 57.2831 96.1136C57.3893 96.4804 57.3224 96.8755 57.0823 97.2988L56.88 97.6554C56.6235 98.1078 56.2361 98.3786 55.7179 98.4679L52.2733 97.8863C52.0774 97.9209 51.9368 98.0135 51.8512 98.1643L51.6934 98.4427L53.955 99.7253C54.0593 99.7845 54.0836 99.8634 54.0277 99.962L53.7662 100.423C53.7103 100.522 53.6301 100.541 53.5258 100.482L50.4726 98.7505C50.3682 98.6913 50.344 98.6124 50.3999 98.5138Z" fill="white"/>
<path d="M50.3999 98.5138L50.8538 97.7136C51.0577 97.354 51.3824 97.1396 51.8279 97.0704L54.2316 96.6632C55.6349 97.6007 55.9188 97.4245 56.0833 97.1346L56.2461 96.8475C56.4829 96.43 56.3838 96.0979 55.9489 95.8513L55.5227 95.6095C55.3023 95.4845 55.1149 95.4434 54.9604 95.4861C54.8059 95.5287 54.6661 95.6602 54.5412 95.8806L54.3586 96.2024C54.2994 96.3068 54.2205 96.3311 54.122 96.2751L53.5653 95.9594C53.4667 95.9035 53.447 95.8234 53.5062 95.719L53.6986 95.3797C53.9387 94.9564 54.2434 94.6962 54.6127 94.5991C54.982 94.502 55.3812 94.5751 55.8103 94.8185L56.4888 95.2033C56.9121 95.4434 57.1769 95.7468 57.2831 96.1136C57.3893 96.4804 57.3224 96.8755 57.0823 97.2988L56.88 97.6554C56.6235 98.1078 56.2361 98.3786 55.7179 98.4679L52.2733 97.8863C52.0774 97.9209 51.9368 98.0135 51.8512 98.1643L51.6934 98.4427L53.955 99.7253C54.0593 99.7845 54.0836 99.8634 54.0277 99.962L53.7662 100.423C53.7103 100.522 53.6301 100.541 53.5258 100.482L50.4726 98.7505C50.3682 98.6913 50.344 98.6124 50.3999 98.5138Z" fill="url(#paint3_linear_41_543)" fill-opacity="0.7"/>
<path d="M50.3999 98.5138L50.8538 97.7136C51.0577 97.354 51.3824 97.1396 51.8279 97.0704L54.2316 96.6632C55.6349 97.6007 55.9188 97.4245 56.0833 97.1346L56.2461 96.8475C56.4829 96.43 56.3838 96.0979 55.9489 95.8513L55.5227 95.6095C55.3023 95.4845 55.1149 95.4434 54.9604 95.4861C54.8059 95.5287 54.6661 95.6602 54.5412 95.8806L54.3586 96.2024C54.2994 96.3068 54.2205 96.3311 54.122 96.2751L53.5653 95.9594C53.4667 95.9035 53.447 95.8234 53.5062 95.719L53.6986 95.3797C53.9387 94.9564 54.2434 94.6962 54.6127 94.5991C54.982 94.502 55.3812 94.5751 55.8103 94.8185L56.4888 95.2033C56.9121 95.4434 57.1769 95.7468 57.2831 96.1136C57.3893 96.4804 57.3224 96.8755 57.0823 97.2988L56.88 97.6554C56.6235 98.1078 56.2361 98.3786 55.7179 98.4679L52.2733 97.8863C52.0774 97.9209 51.9368 98.0135 51.8512 98.1643L51.6934 98.4427L53.955 99.7253C54.0593 99.7845 54.0836 99.8634 54.0277 99.962L53.7662 100.423C53.7103 100.522 53.6301 100.541 53.5258 100.482L50.4726 98.7505C50.3682 98.6913 50.344 98.6124 50.3999 98.5138Z" fill="white"/>
<path d="M59.0066 100.115L58.4673 99.8088C58.3571 99.7463 58.2529 99.714 58.1544 99.7118C58.0618 99.713 57.9908 99.7301 57.9413 99.7634C57.8018 99.8606 57.6857 99.8829 57.5929 99.8302L57.0449 99.5194C56.9464 99.4635 56.925 99.3863 56.9809 99.2877L58.53 96.5564C58.5859 96.4578 58.6632 96.4365 58.7618 96.4924L61.7105 98.1648C61.8149 98.224 61.8391 98.3029 61.7832 98.4015L61.502 98.8973C61.4461 98.9959 61.366 99.0155 61.2616 98.9564L59.0174 97.6835L58.1195 99.2667C58.3793 99.0384 58.7034 99.0345 59.0919 99.2548L59.6051 99.5459C60.0226 99.7827 60.2791 100.074 60.3745 100.419C60.4732 100.759 60.4024 101.14 60.1623 101.563L59.5901 102.572C59.35 102.996 59.0436 103.259 58.671 103.362C58.2984 103.465 57.9005 103.396 57.4772 103.156L56.7378 102.737C56.3087 102.493 56.0427 102.185 55.9397 101.813C55.8426 101.443 55.9141 101.047 56.1542 100.624L56.2825 100.398C56.3417 100.293 56.4206 100.269 56.5192 100.325L57.0672 100.636C57.1657 100.692 57.1854 100.772 57.1262 100.876L57.0029 101.094C56.7628 101.517 56.8515 101.847 57.269 102.084L57.7649 102.365C58.194 102.608 58.5286 102.518 58.7687 102.095L59.2669 101.217C59.4149 100.956 59.468 100.74 59.4261 100.571C59.39 100.405 59.2502 100.253 59.0066 100.115Z" fill="white"/>
<path d="M59.0066 100.115L58.4673 99.8088C58.3571 99.7463 58.2529 99.714 58.1544 99.7118C58.0618 99.713 57.9908 99.7301 57.9413 99.7634C57.8018 99.8606 57.6857 99.8829 57.5929 99.8302L57.0449 99.5194C56.9464 99.4635 56.925 99.3863 56.9809 99.2877L58.53 96.5564C58.5859 96.4578 58.6632 96.4365 58.7618 96.4924L61.7105 98.1648C61.8149 98.224 61.8391 98.3029 61.7832 98.4015L61.502 98.8973C61.4461 98.9959 61.366 99.0155 61.2616 98.9564L59.0174 97.6835L58.1195 99.2667C58.3793 99.0384 58.7034 99.0345 59.0919 99.2548L59.6051 99.5459C60.0226 99.7827 60.2791 100.074 60.3745 100.419C60.4732 100.759 60.4024 101.14 60.1623 101.563L59.5901 102.572C59.35 102.996 59.0436 103.259 58.671 103.362C58.2984 103.465 57.9005 103.396 57.4772 103.156L56.7378 102.737C56.3087 102.493 56.0427 102.185 55.9397 101.813C55.8426 101.443 55.9141 101.047 56.1542 100.624L56.2825 100.398C56.3417 100.293 56.4206 100.269 56.5192 100.325L57.0672 100.636C57.1657 100.692 57.1854 100.772 57.1262 100.876L57.0029 101.094C56.7628 101.517 56.8515 101.847 57.269 102.084L57.7649 102.365C58.194 102.608 58.5286 102.518 58.7687 102.095L59.2669 101.217C59.4149 100.956 59.468 100.74 59.4261 100.571C59.39 100.405 59.2502 100.253 59.0066 100.115Z" fill="url(#paint4_linear_41_543)" fill-opacity="0.7"/>
<path d="M59.0066 100.115L58.4673 99.8088C58.3571 99.7463 58.2529 99.714 58.1544 99.7118C58.0618 99.713 57.9908 99.7301 57.9413 99.7634C57.8018 99.8606 57.6857 99.8829 57.5929 99.8302L57.0449 99.5194C56.9464 99.4635 56.925 99.3863 56.9809 99.2877L58.53 96.5564C58.5859 96.4578 58.6632 96.4365 58.7618 96.4924L61.7105 98.1648C61.8149 98.224 61.8391 98.3029 61.7832 98.4015L61.502 98.8973C61.4461 98.9959 61.366 99.0155 61.2616 98.9564L59.0174 97.6835L58.1195 99.2667C58.3793 99.0384 58.7034 99.0345 59.0919 99.2548L59.6051 99.5459C60.0226 99.7827 60.2791 100.074 60.3745 100.419C60.4732 100.759 60.4024 101.14 60.1623 101.563L59.5901 102.572C59.35 102.996 59.0436 103.259 58.671 103.362C58.2984 103.465 57.9005 103.396 57.4772 103.156L56.7378 102.737C56.3087 102.493 56.0427 102.185 55.9397 101.813C55.8426 101.443 55.9141 101.047 56.1542 100.624L56.2825 100.398C56.3417 100.293 56.4206 100.269 56.5192 100.325L57.0672 100.636C57.1657 100.692 57.1854 100.772 57.1262 100.876L57.0029 101.094C56.7628 101.517 56.8515 101.847 57.269 102.084L57.7649 102.365C58.194 102.608 58.5286 102.518 58.7687 102.095L59.2669 101.217C59.4149 100.956 59.468 100.74 59.4261 100.571C59.39 100.405 59.2502 100.253 59.0066 100.115Z" fill="white"/>
<defs>
<linearGradient id="paint0_linear_41_543" x1="60.2687" y1="97.8321" x2="46.6475" y2="90.2832" gradientUnits="userSpaceOnUse">
<stop stop-color="#393939"/>
<stop offset="1" stop-color="#838383" stop-opacity="0"/>
</linearGradient>
<linearGradient id="paint1_linear_41_543" x1="60.2687" y1="97.8321" x2="46.6475" y2="90.2832" gradientUnits="userSpaceOnUse">
<stop stop-color="#393939"/>
<stop offset="1" stop-color="#838383" stop-opacity="0"/>
</linearGradient>
<linearGradient id="paint2_linear_41_543" x1="60.2687" y1="97.8321" x2="46.6475" y2="90.2832" gradientUnits="userSpaceOnUse">
<stop stop-color="#393939"/>
<stop offset="1" stop-color="#838383" stop-opacity="0"/>
</linearGradient>
<linearGradient id="paint3_linear_41_543" x1="60.2687" y1="97.8321" x2="46.6475" y2="90.2832" gradientUnits="userSpaceOnUse">
<stop stop-color="#393939"/>
<stop offset="1" stop-color="#838383" stop-opacity="0"/>
</linearGradient>
<linearGradient id="paint4_linear_41_543" x1="60.2687" y1="97.8321" x2="46.6475" y2="90.2832" gradientUnits="userSpaceOnUse">
<stop stop-color="#393939"/>
<stop offset="1" stop-color="#838383" stop-opacity="0"/>
</linearGradient>
</defs>
</svg>
